# xmcd
#
# Track frame offsets:
#	150
#	12402
#	26397
#	37950
#	49185
#	60942
#	71590
#	83057
#	93212
#	106315
#	117682
#	131435
#
# Disc length: 1933 seconds
#
# Revision: 2
# Processed by: cddbd v1.5.2PL0 Copyright (c) Steve Scherf et al.
# Submitted via: audiograbber 1.83.01
#
DISCID=92078b0c
DTITLE=Various Artist - Best of Chess Vocal Groups Vol 1
DYEAR=1900
DGENRE=
TTITLE0=Moonglows - In My Diary
TTITLE1=Dozier Boys - She's Gone
TTITLE2=Four Tops - I Wish You Would
TTITLE3=Flamingos - Dream Of A Lifetime
TTITLE4=Ravens - (Give Me) A Simple Prayer
TTITLE5=Re-vels - False Alarm
TTITLE6=Stanley Mitchell and The Tornadoes - Four O'clock In The Morning
TTITLE7=Monotones - Tell It To The Judge
TTITLE8=Lee Andrews and The Hearts - Long Lonely Nights
TTITLE9=Students - Every Day Of The Week
TTITLE10=Moonglows - Blue Velver
TTITLE11=Flamingos - A Kiss From Your Lips
EXTD=
EXTT0=
EXTT1=
EXTT2=
EXTT3=
EXTT4=
EXTT5=
EXTT6=
EXTT7=
EXTT8=
EXTT9=
EXTT10=
EXTT11=
PLAYORDER=
